<?xml version="1.0" encoding="utf-8"?>

<!DOCTYPE svg PUBLIC "-//W3C//DTD SVG 1.1//EN" "http://www.w3.org/Graphics/SVG/1.1/DTD/svg11.dtd">
<!-- Uploaded to: SVG Repo, www.svgrepo.com, Generator: SVG Repo Mixer Tools -->
<svg height="800px" width="800px" version="1.1" id="_x32_" xmlns="http://www.w3.org/2000/svg" xmlns:xlink="http://www.w3.org/1999/xlink" 
	 viewBox="0 0 512 512"  xml:space="preserve">
<style type="text/css">
	.st0{fill:#000000;}
</style>
<g>
	<path class="st0" d="M389.255,0H122.744C95.723,0.016,73.833,21.891,73.817,48.928v414.146
		c0.016,27.036,21.906,48.911,48.927,48.927h266.511c27.021-0.016,48.911-21.891,48.928-48.927V48.928
		C438.167,21.891,416.276,0.016,389.255,0z M405.554,463.073c-0.016,4.548-1.801,8.523-4.78,11.527
		c-3.011,2.971-6.978,4.764-11.519,4.771H122.744c-4.557-0.007-8.524-1.8-11.519-4.771c-2.979-3.004-4.78-6.978-4.78-11.527V48.928
		c0-4.548,1.8-8.523,4.78-11.527c2.995-2.972,6.962-4.764,11.519-4.772h266.511c4.54,0.008,8.508,1.8,11.519,4.772
		c2.979,3.004,4.764,6.978,4.78,11.527V463.073z"/>
	<path class="st0" d="M290.764,193.583C269,193.997,258.357,209.387,256,223.392c-2.358-14.004-13.016-29.394-34.764-29.809
		c-20.042-0.399-36.643,15.031-36.643,43.183c0,36.142,40.881,52.839,68.842,79.836c0.956,0.948,0.749,0.924,0.749,0.924l1.8,0.892
		H256l1.816-0.892c0,0-0.239,0.024,0.749-0.924c27.962-26.996,68.826-43.693,68.826-79.836
		C327.391,208.614,310.822,193.184,290.764,193.583z"/>
</g>
</svg>